<svg width="440" height="440" viewBox="0 0 440 440" fill="none" xmlns="http://www.w3.org/2000/svg">
<circle cx="220" cy="220" r="220" fill="url(#paint0_radial_8_4)"/>
<path d="M165.586 280H138.344L138.516 259.891H165.586C172.346 259.891 178.047 258.372 182.688 255.336C187.328 252.242 190.823 247.745 193.172 241.844C195.578 235.943 196.781 228.81 196.781 220.445V214.344C196.781 207.927 196.094 202.284 194.719 197.414C193.401 192.544 191.424 188.448 188.789 185.125C186.154 181.802 182.917 179.31 179.078 177.648C175.24 175.93 170.828 175.07 165.844 175.07H137.828V154.875H165.844C174.208 154.875 181.857 156.307 188.789 159.172C195.779 161.979 201.823 166.018 206.922 171.289C212.021 176.56 215.945 182.862 218.695 190.195C221.503 197.471 222.906 205.578 222.906 214.516V220.445C222.906 229.326 221.503 237.432 218.695 244.766C215.945 252.099 212.021 258.401 206.922 263.672C201.88 268.885 195.836 272.924 188.789 275.789C181.799 278.596 174.065 280 165.586 280ZM152.953 154.875V280H127.172V154.875H152.953ZM266.219 187.016V280H241.383V187.016H266.219ZM239.836 162.781C239.836 159.172 241.096 156.193 243.617 153.844C246.138 151.495 249.518 150.32 253.758 150.32C257.94 150.32 261.292 151.495 263.812 153.844C266.391 156.193 267.68 159.172 267.68 162.781C267.68 166.391 266.391 169.37 263.812 171.719C261.292 174.068 257.94 175.242 253.758 175.242C249.518 175.242 246.138 174.068 243.617 171.719C241.096 169.37 239.836 166.391 239.836 162.781ZM312.797 148V280H287.961V148H312.797Z" fill="black"/>
<defs>
<radialGradient id="paint0_radial_8_4" cx="0" cy="0" r="1" gradientUnits="userSpaceOnUse" gradientTransform="translate(220 220) rotate(90) scale(189.2)">
<stop stop-color="#F5F5F5"/>
<stop offset="1" stop-color="#48ADFF"/>
</radialGradient>
</defs>
</svg>
