<svg width="1268" height="1268" viewBox="0 0 1268 1268" fill="none" xmlns="http://www.w3.org/2000/svg">
<circle cx="633.865" cy="633.865" r="633.865" fill="url(#paint0_radial_50_23)"/>
<path d="M482.961 770H423.586L423.977 739.336H482.961C503.273 739.336 520.201 735.104 533.742 726.641C547.284 718.047 557.44 706.068 564.211 690.703C571.112 675.208 574.562 657.109 574.562 636.406V619.023C574.562 602.747 572.609 588.294 568.703 575.664C564.797 562.904 559.068 552.161 551.516 543.438C543.964 534.583 534.719 527.878 523.781 523.32C512.974 518.763 500.539 516.484 486.477 516.484H422.414V485.625H486.477C505.096 485.625 522.089 488.75 537.453 495C552.818 501.12 566.034 510.039 577.102 521.758C588.299 533.346 596.893 547.409 602.883 563.945C608.872 580.352 611.867 598.841 611.867 619.414V636.406C611.867 656.979 608.872 675.534 602.883 692.07C596.893 708.477 588.234 722.474 576.906 734.062C565.708 745.651 552.167 754.57 536.281 760.82C520.526 766.94 502.753 770 482.961 770ZM443.703 485.625V770H406.008V485.625H443.703ZM734.297 558.672V770H697.969V558.672H734.297ZM695.234 502.617C695.234 496.758 696.992 491.81 700.508 487.773C704.154 483.737 709.492 481.719 716.523 481.719C723.424 481.719 728.698 483.737 732.344 487.773C736.12 491.81 738.008 496.758 738.008 502.617C738.008 508.216 736.12 513.034 732.344 517.07C728.698 520.977 723.424 522.93 716.523 522.93C709.492 522.93 704.154 520.977 700.508 517.07C696.992 513.034 695.234 508.216 695.234 502.617ZM863.562 470V770H827.234V470H863.562Z" fill="white"/>
<defs>
<radialGradient id="paint0_radial_50_23" cx="0" cy="0" r="1" gradientUnits="userSpaceOnUse" gradientTransform="translate(633.865 633.865) rotate(89.9878) scale(634.135)">
<stop stop-color="#6BC1FF"/>
<stop offset="0.895" stop-color="#35598C"/>
<stop offset="1" stop-color="#2F4D7E"/>
</radialGradient>
</defs>
</svg>
